<svg width="336" height="160" viewBox="0 0 336 160" fill="none" xmlns="http://www.w3.org/2000/svg">
<path fill-rule="evenodd" clip-rule="evenodd" d="M129.481 97.7147H133.571V73.2817H129.481V97.7147ZM129 66.615C129 68.024 130.168 69.158 131.543 69.158C132.952 69.158 134.086 68.024 134.12 66.615C134.12 65.2061 132.952 64.0721 131.543 64.0721C130.134 64.0721 129 65.2061 129 66.615ZM138.519 78.3676C138.519 90.6357 145.323 98.3333 156.113 98.3333C166.904 98.3333 173.708 90.6357 173.708 78.3676C173.708 66.0996 166.904 58.3676 156.113 58.3676C145.323 58.3676 138.519 66.0996 138.519 78.3676ZM177.522 87.1992C177.9 93.8659 183.605 98.3333 191.715 98.3333C200.306 98.3333 205.77 93.8659 205.77 87.0618C205.77 81.6666 202.505 78.6769 194.705 76.7181L190.512 75.6528C184.808 74.2095 182.402 72.2508 182.402 68.9174C182.402 64.6563 186.388 61.6666 191.749 61.6666C197.247 61.6666 201.131 64.5876 201.474 68.9518H205.151C204.911 62.8006 199.412 58.3333 191.852 58.3333C184.223 58.3333 178.588 62.8006 178.588 69.0549C178.588 74.1752 181.784 77.1992 188.966 79.0205L193.777 80.2576C199.516 81.7009 202.024 83.8659 202.024 87.4741C202.024 91.8384 197.866 94.9999 192.058 94.9999C185.976 94.9999 181.612 91.8384 181.199 87.1992H177.522ZM156.113 94.9312C164.601 94.9312 169.962 88.5051 169.962 78.3676C169.962 68.1958 164.601 61.7697 156.113 61.7697C147.625 61.7697 142.299 68.1958 142.299 78.3676C142.299 88.5051 147.625 94.9312 156.113 94.9312Z" fill="url(#paint0_linear_289_1471)"/>
<defs>
<linearGradient id="paint0_linear_289_1471" x1="205.77" y1="98.3332" x2="129" y2="98.3332" gradientUnits="userSpaceOnUse">
<stop stop-color="#EC2F4E"/>
<stop offset="1" stop-color="#840662"/>
</linearGradient>
</defs>
</svg>
