<svg width="336" height="160" viewBox="0 0 336 160" fill="none" xmlns="http://www.w3.org/2000/svg">
<g clip-path="url(#clip0_289_1474)">
<path fill-rule="evenodd" clip-rule="evenodd" d="M153.707 79.6044C153.707 82.7981 152.958 85.4492 151.451 87.5572C149.772 89.9432 147.445 91.1718 144.47 91.2392C142.228 91.3104 139.917 90.608 137.54 89.1351V102.773L133.694 101.401V71.1301C134.325 70.3561 135.137 69.6913 136.122 69.127C138.411 67.7931 141.192 67.1075 144.466 67.0739L144.52 67.1283C147.513 67.0907 149.818 68.3193 151.438 70.8102C152.949 73.0952 153.707 76.0239 153.707 79.6044ZM149.284 79.3437C149.284 73.0572 147.492 69.8298 143.907 69.6533C142.48 69.5859 141.088 69.813 139.732 70.3393C138.651 70.7261 137.923 71.1094 137.54 71.4966V86.5017C139.833 87.941 141.87 88.6101 143.646 88.5048C147.403 88.2557 149.284 85.2053 149.284 79.3437Z" fill="url(#paint0_linear_289_1474)"/>
<path d="M177.211 88.5548C177.211 92.8386 176.782 95.8048 175.924 97.4543C175.062 99.1034 173.42 100.421 170.997 101.401C169.032 102.175 166.906 102.596 164.626 102.668L163.99 100.244C166.309 99.9293 167.942 99.6133 168.888 99.2977C170.752 98.6666 172.031 97.6991 172.734 96.4027C173.298 95.3468 173.576 93.3312 173.576 90.3481V89.3466C170.946 90.542 168.19 91.1351 165.308 91.1351C163.414 91.1351 161.744 90.542 160.304 89.3466C158.688 88.0463 157.881 86.3972 157.881 84.3984V68.391L161.727 67.0739V83.1854C161.727 84.9061 162.282 86.2319 163.393 87.1618C164.503 88.0916 165.943 88.538 167.706 88.5039C169.469 88.4659 171.358 87.7843 173.365 86.4503V67.6541H177.211L177.211 88.5548Z" fill="url(#paint1_linear_289_1474)"/>
<path d="M192.225 91.0289C191.803 91.0645 191.381 91.0827 190.958 91.0833C188.783 91.0833 187.087 90.5661 185.875 89.5266C184.667 88.4875 184.062 87.053 184.062 85.2221V70.0738H181.427V67.6545H184.062V61.2291L187.903 59.8614V67.6545H192.225V70.0738H187.903V85.1168C187.903 86.5604 188.29 87.5827 189.064 88.1806C189.729 88.6727 190.785 88.9546 192.224 89.0263L192.225 91.0289Z" fill="url(#paint2_linear_289_1474)"/>
<path d="M215.511 90.7134H211.665V75.868C211.665 74.3575 211.312 73.0572 210.609 71.9719C209.797 70.7429 208.669 70.1286 207.222 70.1286C205.458 70.1286 203.254 71.0585 200.607 72.9182V90.7134H196.761V55.2289L200.607 54.0171V70.1791C203.064 68.3906 205.749 67.4943 208.665 67.4943C210.702 67.4943 212.351 68.1803 213.614 69.5479C214.88 70.9151 215.511 72.6195 215.511 74.6563L215.511 90.7134Z" fill="url(#paint3_linear_289_1474)"/>
<path fill-rule="evenodd" clip-rule="evenodd" d="M240.165 78.763C240.165 82.2011 239.285 85.0624 237.53 87.347C235.598 89.9056 232.931 91.1887 229.527 91.1887C226.152 91.1887 223.523 89.9052 221.625 87.347C219.904 85.0624 219.045 82.2011 219.045 78.763C219.045 75.5317 219.975 72.8133 221.835 70.6C223.8 68.252 226.383 67.0739 229.578 67.0739C232.771 67.0739 235.371 68.252 237.374 70.6C239.235 72.8133 240.165 75.5317 240.165 78.763ZM235.952 78.738C235.952 76.3226 235.494 74.3282 234.581 72.7503C233.495 70.8275 231.808 69.813 229.527 69.7081C225.311 69.952 223.207 72.9731 223.207 78.7635C223.207 81.4184 223.644 83.6361 224.528 85.416C225.656 87.6841 227.347 88.8035 229.603 88.7655C233.836 88.7314 235.952 85.3905 235.952 78.738Z" fill="url(#paint4_linear_289_1474)"/>
<path d="M262.213 90.7134H258.367V75.0267C258.367 73.3059 257.85 71.9633 256.815 70.9954C255.78 70.0319 254.399 69.5648 252.678 69.6023C250.853 69.636 249.114 70.2335 247.465 71.3909V90.7134H243.619V70.9156C245.832 69.3045 247.869 68.252 249.729 67.7598C251.483 67.3014 253.032 67.0739 254.366 67.0739C255.278 67.0739 256.137 67.1619 256.945 67.3389C258.456 67.6882 259.685 68.3362 260.631 69.2872C261.687 70.3393 262.213 71.6011 262.213 73.0784V90.7134Z" fill="url(#paint5_linear_289_1474)"/>
<path fill-rule="evenodd" clip-rule="evenodd" d="M95.7086 55.371C93.7297 55.3801 91.8402 55.5489 90.1777 55.8433C85.2796 56.7089 84.3903 58.5199 84.3903 61.8603V66.2719H95.9651V67.7423H80.0461C76.6823 67.7423 73.7364 69.7644 72.8151 73.6108C71.7523 78.0198 71.7052 80.771 72.8151 85.3746C73.6379 88.8015 75.603 91.2432 78.9669 91.2432H82.9467V85.9548C82.9467 82.1343 86.2522 78.7644 90.1777 78.7644H101.739C104.957 78.7644 107.526 76.1147 107.526 72.8825V61.8599C107.526 58.7232 104.88 56.3665 101.739 55.8429C99.7502 55.5122 97.6875 55.3615 95.7086 55.371ZM89.449 58.9187C90.6448 58.9187 91.6209 59.9112 91.6209 61.1312C91.6209 62.3469 90.6443 63.3303 89.449 63.3303C88.2493 63.3303 87.2771 62.3473 87.2771 61.1312C87.2771 59.9112 88.2493 58.9187 89.449 58.9187Z" fill="url(#paint6_linear_289_1474)"/>
<path fill-rule="evenodd" clip-rule="evenodd" d="M108.97 72.8815V67.7417H113.314C116.682 67.7417 118.27 70.2615 119.101 73.6102C120.258 78.2614 120.31 81.7487 119.101 85.3741C117.931 88.8959 116.678 91.2426 113.314 91.2426H95.9649V92.713H107.526V97.1241C107.526 100.464 104.653 102.162 101.739 103.006C97.355 104.278 93.8414 104.084 90.1775 103.006C87.1176 102.106 84.3901 100.261 84.3901 97.1241V86.1023C84.3901 82.9306 87.0106 80.2204 90.1775 80.2204H101.739C105.591 80.2204 108.97 76.8666 108.97 72.8815ZM104.639 97.8528C104.639 96.6367 103.667 95.6537 102.467 95.6537C101.272 95.6537 100.295 96.6371 100.295 97.8528C100.295 99.0728 101.271 100.065 102.467 100.065C103.667 100.065 104.639 99.0728 104.639 97.8528Z" fill="url(#paint7_linear_289_1474)"/>
</g>
<defs>
<linearGradient id="paint0_linear_289_1474" x1="262.213" y1="103.889" x2="72.0002" y2="103.889" gradientUnits="userSpaceOnUse">
<stop stop-color="#EC2F4E"/>
<stop offset="1" stop-color="#840662"/>
</linearGradient>
<linearGradient id="paint1_linear_289_1474" x1="262.213" y1="103.889" x2="72.0002" y2="103.889" gradientUnits="userSpaceOnUse">
<stop stop-color="#EC2F4E"/>
<stop offset="1" stop-color="#840662"/>
</linearGradient>
<linearGradient id="paint2_linear_289_1474" x1="262.213" y1="103.889" x2="72.0002" y2="103.889" gradientUnits="userSpaceOnUse">
<stop stop-color="#EC2F4E"/>
<stop offset="1" stop-color="#840662"/>
</linearGradient>
<linearGradient id="paint3_linear_289_1474" x1="262.213" y1="103.889" x2="72.0002" y2="103.889" gradientUnits="userSpaceOnUse">
<stop stop-color="#EC2F4E"/>
<stop offset="1" stop-color="#840662"/>
</linearGradient>
<linearGradient id="paint4_linear_289_1474" x1="262.213" y1="103.889" x2="72.0002" y2="103.889" gradientUnits="userSpaceOnUse">
<stop stop-color="#EC2F4E"/>
<stop offset="1" stop-color="#840662"/>
</linearGradient>
<linearGradient id="paint5_linear_289_1474" x1="262.213" y1="103.889" x2="72.0002" y2="103.889" gradientUnits="userSpaceOnUse">
<stop stop-color="#EC2F4E"/>
<stop offset="1" stop-color="#840662"/>
</linearGradient>
<linearGradient id="paint6_linear_289_1474" x1="262.213" y1="103.889" x2="72.0002" y2="103.889" gradientUnits="userSpaceOnUse">
<stop stop-color="#EC2F4E"/>
<stop offset="1" stop-color="#840662"/>
</linearGradient>
<linearGradient id="paint7_linear_289_1474" x1="262.213" y1="103.889" x2="72.0002" y2="103.889" gradientUnits="userSpaceOnUse">
<stop stop-color="#EC2F4E"/>
<stop offset="1" stop-color="#840662"/>
</linearGradient>
<clipPath id="clip0_289_1474">
<rect width="190.476" height="50" fill="white" transform="translate(72 54)"/>
</clipPath>
</defs>
</svg>
