<svg width="336" height="160" viewBox="0 0 336 160" fill="none" xmlns="http://www.w3.org/2000/svg">
<g clip-path="url(#clip0_289_1472)">
<path d="M169.198 97.6815C167.217 97.5494 164.932 97.202 163.13 96.6802C162.792 96.5824 161.395 96.0687 161.039 95.9056C154.766 92.9996 150.395 86.6561 150.395 79.2966C150.395 69.2023 158.608 60.9801 168.709 60.9801C178.72 60.9801 186.877 69.0621 187.017 79.0422H193.633C193.493 65.4157 182.369 54.3724 168.709 54.3724C154.966 54.3724 143.781 65.5511 143.781 79.2966C143.781 88.7728 149.11 97.0145 156.914 101.225C158.322 101.97 160.345 102.738 161.031 102.949C163.255 103.611 165.985 104.051 168.415 104.235C169.24 104.297 172.122 104.33 172.962 104.333H218.521V97.7434H173.038C172.433 97.7434 169.79 97.7206 169.198 97.6815ZM173.038 87.3345C172.557 87.3345 170.041 87.3181 169.576 87.279C168.789 87.2122 167.647 87.0947 166.913 86.9268C166.085 86.705 165.307 86.4115 164.956 86.219C162.499 84.89 160.824 82.2906 160.824 79.2966C160.824 74.9409 164.351 71.4087 168.709 71.4087C172.975 71.4087 176.443 74.8022 176.582 79.0422H182.938C182.805 71.2962 176.491 65.0537 168.709 65.0537C160.84 65.0537 154.463 71.4299 154.463 79.2966C154.463 84.8443 157.642 89.6354 162.274 91.9821C162.986 92.3995 164.327 92.8366 164.708 92.936C166.016 93.2801 167.773 93.5149 169.198 93.6193C169.725 93.6633 172.304 93.6829 172.849 93.6862V93.696H218.52V87.3345H173.038ZM139.704 104.309H133.044V60.9948H123.312V54.3332H139.704V104.309ZM116 64.3231V70.7287H123.312V104.309H129.711V64.3231H116Z" fill="url(#paint0_linear_289_1472)"/>
</g>
<defs>
<linearGradient id="paint0_linear_289_1472" x1="218.521" y1="54.3333" x2="116" y2="54.3333" gradientUnits="userSpaceOnUse">
<stop stop-color="#EC2F4E"/>
<stop offset="1" stop-color="#840662"/>
</linearGradient>
<clipPath id="clip0_289_1472">
<rect width="102.521" height="50" fill="white" transform="translate(116 54.3333)"/>
</clipPath>
</defs>
</svg>
