<svg width="336" height="160" viewBox="0 0 336 160" fill="none" xmlns="http://www.w3.org/2000/svg">
<g clip-path="url(#clip0_289_1469)">
<path d="M137.796 99.2846C135.432 99.2846 133.002 101.179 133.002 104.494C133.002 107.524 135.138 109.665 137.796 109.665C139.989 109.665 140.966 108.193 140.966 108.193V108.835C140.966 109.138 141.253 109.476 141.608 109.476H143.193V99.5111H140.966V100.776C140.966 100.776 139.981 99.2846 137.796 99.2846ZM138.192 101.322C140.138 101.322 141.159 103.033 141.159 104.493C141.159 106.119 139.947 107.663 138.196 107.663C136.733 107.663 135.267 106.478 135.267 104.472C135.267 102.661 136.529 101.322 138.192 101.322Z" fill="url(#paint0_linear_289_1469)"/>
<path d="M146.289 109.476C145.947 109.476 145.647 109.231 145.647 108.835V99.511H147.874V100.744C148.379 99.9856 149.365 99.2815 150.878 99.2815C153.352 99.2815 154.669 101.253 154.669 103.097V109.476H153.121C152.715 109.476 152.442 109.137 152.442 108.797V103.588C152.442 102.566 151.815 101.324 150.367 101.324C148.805 101.324 147.874 102.801 147.874 104.192V109.476L146.289 109.476Z" fill="url(#paint1_linear_289_1469)"/>
<path d="M161.161 99.2846C158.798 99.2846 156.367 101.179 156.367 104.494C156.367 107.524 158.504 109.665 161.161 109.665C163.354 109.665 164.332 108.193 164.332 108.193V108.835C164.332 109.138 164.619 109.476 164.974 109.476H166.559V94.5284H164.332V100.776C164.332 100.776 163.346 99.2846 161.161 99.2846ZM161.558 101.322C163.503 101.322 164.524 103.034 164.524 104.493C164.524 106.119 163.312 107.663 161.562 107.663C160.099 107.663 158.633 106.478 158.633 104.472C158.633 102.661 159.894 101.322 161.558 101.322Z" fill="url(#paint2_linear_289_1469)"/>
<path d="M169.654 109.476C169.312 109.476 169.013 109.231 169.013 108.835V99.511H171.24V101.172C171.623 100.241 172.45 99.3978 173.92 99.3978C174.329 99.3978 174.712 99.4732 174.712 99.4732V101.776C174.712 101.776 174.234 101.587 173.655 101.587C172.093 101.587 171.24 103.064 171.24 104.454V109.476H169.654Z" fill="url(#paint3_linear_289_1469)"/>
<path d="M188.226 109.476C187.884 109.476 187.584 109.231 187.584 108.835V99.511H189.811V109.476L188.226 109.476Z" fill="url(#paint4_linear_289_1469)"/>
<path d="M196.341 99.2846C193.978 99.2846 191.548 101.179 191.548 104.494C191.548 107.524 193.684 109.665 196.341 109.665C198.535 109.665 199.512 108.193 199.512 108.193V108.835C199.512 109.138 199.799 109.476 200.154 109.476H201.739V94.5284H199.512V100.776C199.512 100.776 198.527 99.2846 196.341 99.2846ZM196.738 101.322C198.684 101.322 199.705 103.034 199.705 104.493C199.705 106.119 198.493 107.663 196.742 107.663C195.279 107.663 193.813 106.478 193.813 104.472C193.813 102.661 195.075 101.322 196.738 101.322Z" fill="url(#paint5_linear_289_1469)"/>
<path d="M188.682 97.362C189.495 97.362 190.155 96.7027 190.155 95.8895C190.155 95.0762 189.495 94.4169 188.682 94.4169C187.869 94.4169 187.209 95.0762 187.209 95.8895C187.209 96.7027 187.869 97.362 188.682 97.362Z" fill="url(#paint6_linear_289_1469)"/>
<path d="M180.586 99.2812C178.111 99.2812 175.391 101.129 175.391 104.476C175.391 107.526 177.708 109.665 180.581 109.665C184.121 109.665 185.85 106.819 185.85 104.495C185.85 101.644 183.624 99.2812 180.586 99.2812ZM180.594 101.361C182.306 101.361 183.583 102.741 183.583 104.482C183.583 106.254 182.227 107.621 180.599 107.621C179.088 107.621 177.619 106.391 177.619 104.512C177.619 102.601 179.016 101.361 180.594 101.361Z" fill="url(#paint7_linear_289_1469)"/>
<path d="M184.146 61.272L189.844 51.4012C190.165 50.8478 189.971 50.1449 189.425 49.8233C188.879 49.5018 188.169 49.6887 187.855 50.2421L182.082 60.2401C177.677 58.2285 172.719 57.1068 167.388 57.1068C162.056 57.1068 157.098 58.2285 152.693 60.2401L146.92 50.2421C146.599 49.6887 145.896 49.5018 145.343 49.8233C144.789 50.1449 144.602 50.8478 144.924 51.4012L150.622 61.272C140.796 66.5963 134.141 76.5419 133.041 88.185H201.734C200.634 76.5418 193.979 66.5962 184.146 61.272ZM151.617 78.5385C150.024 78.5385 148.738 77.2448 148.738 75.6595C148.738 74.0667 150.031 72.7805 151.617 72.7805C153.209 72.7805 154.496 74.0742 154.496 75.6595C154.503 77.2448 153.209 78.5385 151.617 78.5385ZM183.151 78.5385C181.558 78.5385 180.272 77.2448 180.272 75.6595C180.272 74.0667 181.566 72.7805 183.151 72.7805C184.744 72.7805 186.03 74.0742 186.03 75.6595C186.038 77.2448 184.744 78.5385 183.151 78.5385Z" fill="url(#paint8_linear_289_1469)"/>
</g>
<defs>
<linearGradient id="paint0_linear_289_1469" x1="201.739" y1="109.665" x2="133.002" y2="109.665" gradientUnits="userSpaceOnUse">
<stop stop-color="#EC2F4E"/>
<stop offset="1" stop-color="#840662"/>
</linearGradient>
<linearGradient id="paint1_linear_289_1469" x1="201.739" y1="109.665" x2="133.002" y2="109.665" gradientUnits="userSpaceOnUse">
<stop stop-color="#EC2F4E"/>
<stop offset="1" stop-color="#840662"/>
</linearGradient>
<linearGradient id="paint2_linear_289_1469" x1="201.739" y1="109.665" x2="133.002" y2="109.665" gradientUnits="userSpaceOnUse">
<stop stop-color="#EC2F4E"/>
<stop offset="1" stop-color="#840662"/>
</linearGradient>
<linearGradient id="paint3_linear_289_1469" x1="201.739" y1="109.665" x2="133.002" y2="109.665" gradientUnits="userSpaceOnUse">
<stop stop-color="#EC2F4E"/>
<stop offset="1" stop-color="#840662"/>
</linearGradient>
<linearGradient id="paint4_linear_289_1469" x1="201.739" y1="109.665" x2="133.002" y2="109.665" gradientUnits="userSpaceOnUse">
<stop stop-color="#EC2F4E"/>
<stop offset="1" stop-color="#840662"/>
</linearGradient>
<linearGradient id="paint5_linear_289_1469" x1="201.739" y1="109.665" x2="133.002" y2="109.665" gradientUnits="userSpaceOnUse">
<stop stop-color="#EC2F4E"/>
<stop offset="1" stop-color="#840662"/>
</linearGradient>
<linearGradient id="paint6_linear_289_1469" x1="201.739" y1="109.665" x2="133.002" y2="109.665" gradientUnits="userSpaceOnUse">
<stop stop-color="#EC2F4E"/>
<stop offset="1" stop-color="#840662"/>
</linearGradient>
<linearGradient id="paint7_linear_289_1469" x1="201.739" y1="109.665" x2="133.002" y2="109.665" gradientUnits="userSpaceOnUse">
<stop stop-color="#EC2F4E"/>
<stop offset="1" stop-color="#840662"/>
</linearGradient>
<linearGradient id="paint8_linear_289_1469" x1="201.739" y1="109.665" x2="133.002" y2="109.665" gradientUnits="userSpaceOnUse">
<stop stop-color="#EC2F4E"/>
<stop offset="1" stop-color="#840662"/>
</linearGradient>
<clipPath id="clip0_289_1469">
<rect width="68.738" height="60" fill="white" transform="translate(133 49.6667)"/>
</clipPath>
</defs>
</svg>
