<svg width="336" height="160" viewBox="0 0 336 160" fill="none" xmlns="http://www.w3.org/2000/svg">
<g clip-path="url(#clip0_289_1473)">
<path d="M162.173 108.987C156.933 107.902 152.043 105.482 148.205 102.073C138.35 93.3203 135.305 79.5711 140.511 67.3373C141.789 64.3331 143.867 61.2841 146.443 58.6353L148.713 56.3001L148.873 69.9681C149.026 83.0509 149.061 83.7099 149.68 85.3586C150.918 88.6568 152.245 90.7567 154.53 93.0322C160.432 98.9104 169.09 100.377 176.45 96.7465C183.368 93.3337 187.729 85.9129 187.222 78.4171C186.881 73.3822 185.188 69.6901 181.532 66.0115C178.768 63.2299 175.516 61.413 171.975 60.6721C168.373 59.9184 168.545 59.8082 168.545 62.8575V65.4901L170.52 65.854C178.169 67.2633 183.228 74.7741 181.633 82.354C181.124 84.775 179.988 86.9127 178.165 88.882C175.395 91.8747 171.497 93.3051 168.093 93.2986C162.465 93.2877 157.765 90.0895 155.487 85.3601C155.487 85.3601 154.891 84.0082 154.699 83.1729C153.571 78.2602 154.292 67.9187 154.292 67.9187L154.205 52.7977L155.097 52.3361C155.588 52.0822 156.059 51.8745 156.144 51.8745C156.228 51.8745 156.336 58.8196 156.382 67.308C156.382 67.308 155.298 78.4352 156.638 82.6993C156.831 83.3145 157.198 84.3668 157.198 84.3668C158.372 86.7592 160.254 88.8636 162.7 90.0219C164.556 90.9012 165.491 91.2991 168.237 91.2991C170.031 91.2991 171.621 90.7327 173.45 89.8915C175.606 88.8999 178.079 86.2707 178.993 83.8702C181.512 77.2563 178.005 70.1407 171.25 68.1566C168.489 67.3457 168.545 67.301 168.545 70.303V72.9253L169.871 73.2797C174.648 74.5573 176.105 80.96 172.355 84.25C171.03 85.4123 169.836 85.9261 167.748 85.9261C165.516 85.9261 163.374 84.5754 162.273 82.5038C161.612 81.2593 161.556 80.0789 161.556 79.5383C161.556 74.5445 161.448 65.5632 161.448 65.5632L161.358 50.1572L162.044 49.9869C162.421 49.8932 163.946 49.6614 165.432 49.4717C170.472 48.8285 177.928 50.4779 182.938 53.3441C189.767 57.2516 194.935 63.9643 197.087 71.723C197.827 74.3918 197.909 75.1678 197.909 79.4609C197.909 83.735 197.825 84.5366 197.1 87.1471C194.174 97.6921 186.73 105.23 176.086 108.427C173.846 109.1 172.796 109.229 168.844 109.313C165.654 109.381 163.586 109.28 162.173 108.987Z" fill="url(#paint0_linear_289_1473)"/>
</g>
<defs>
<linearGradient id="paint0_linear_289_1473" x1="197.909" y1="109.333" x2="138" y2="109.333" gradientUnits="userSpaceOnUse">
<stop stop-color="#EC2F4E"/>
<stop offset="1" stop-color="#840662"/>
</linearGradient>
<clipPath id="clip0_289_1473">
<rect width="59.9092" height="60" fill="white" transform="translate(138 49.3333)"/>
</clipPath>
</defs>
</svg>
