<svg width="336" height="160" viewBox="0 0 336 160" fill="none" xmlns="http://www.w3.org/2000/svg">
<path d="M175.699 25.5466C175.699 25.5466 183.409 33.2592 168.386 45.119C159.071 52.4757 162.52 57.3872 165.83 62.1018C166.801 63.4841 167.76 64.8495 168.381 66.2546C161.35 59.9102 156.189 54.3252 159.651 49.1272C161.342 46.5885 164.028 44.485 166.746 42.3568C172.197 38.0886 177.775 33.7215 175.699 25.5466Z" fill="url(#paint0_linear_289_1468)"/>
<path d="M171.725 61.0266C175.304 65.1474 170.785 68.8556 170.785 68.8556C170.785 68.8556 179.873 64.164 175.699 58.289C175.532 58.0536 175.366 57.8234 175.203 57.5975C171.579 52.564 169.507 49.6848 184.995 40.7021C184.995 40.7021 159.592 47.0465 171.725 61.0266Z" fill="url(#paint1_linear_289_1468)"/>
<path d="M158.438 77.6642C153.581 77.1618 156.761 74.8076 156.761 74.8076C144.192 78.9792 163.754 83.7098 181.317 78.5742C179.45 77.916 178.263 76.7124 178.263 76.7124C169.68 78.3652 164.719 78.3122 158.438 77.6642Z" fill="url(#paint2_linear_289_1468)"/>
<path d="M158.536 82.9316C158.536 82.9316 155.701 84.5806 160.554 85.1386C166.434 85.8094 169.439 85.7132 175.919 84.4868C175.919 84.4868 177.623 85.555 180.002 86.4802C165.476 92.7058 147.127 86.1196 158.536 82.9316Z" fill="url(#paint3_linear_289_1468)"/>
<path d="M195.021 110.856H194.613V110.628H195.71V110.856H195.306V111.993H195.021V110.856Z" fill="url(#paint4_linear_289_1468)"/>
<path d="M197.209 110.915H197.203L196.799 111.993H196.614L196.213 110.915H196.208V111.993H195.94V110.628H196.335L196.707 111.595L197.077 110.628H197.471V111.993H197.209L197.209 110.915Z" fill="url(#paint5_linear_289_1468)"/>
<path d="M188.626 92.0072C193.035 90.6696 190.937 88.9406 190.937 88.9406C198.619 92.4058 174.247 99.3716 144.63 94.5686C133.77 92.8082 149.857 86.6612 152.802 88.7354C152.802 88.7354 151.871 88.6696 150.242 89.0228C148.68 89.3582 143.715 90.9566 146.363 92.1084C153.728 95.3142 180.241 94.5472 188.626 92.0072Z" fill="url(#paint6_linear_289_1468)"/>
<path d="M159.9 66.3903C159.9 66.3903 146.414 69.5935 155.124 70.7567C158.802 71.2491 166.133 71.1377 172.963 70.5655C178.544 70.0947 184.148 69.0937 184.148 69.0937C184.148 69.0937 182.18 69.9365 180.756 70.9087C167.061 74.5105 140.605 72.8349 148.221 69.1507C154.663 66.0371 159.9 66.3903 159.9 66.3903Z" fill="url(#paint7_linear_289_1468)"/>
<path d="M187.084 66.6634C191.577 65.7268 198.014 72.6788 184.092 79.913C184.028 80.0852 183.812 80.2776 183.812 80.2776C202.405 75.3898 195.57 63.0488 186.682 66.1736C185.901 66.4508 185.492 67.0912 185.492 67.0912C185.492 67.0912 185.983 66.8926 187.084 66.6634Z" fill="url(#paint8_linear_289_1468)"/>
<path d="M195.637 92.7183C195.151 99.0413 174.631 100.371 161.268 99.5159C152.485 98.9527 150.777 97.5391 150.777 97.5391C159.12 98.9147 173.188 99.1653 184.593 97.0189C194.703 95.1153 195.637 92.7183 195.637 92.7183Z" fill="url(#paint9_linear_289_1468)"/>
<path fill-rule="evenodd" clip-rule="evenodd" d="M162.556 127.601V115.452C162.556 112.349 160.786 110.301 156.519 110.301C154.027 110.301 151.845 110.916 150.071 111.701L150.583 113.851C151.98 113.339 153.787 112.862 155.562 112.862C158.02 112.862 159.078 113.851 159.078 115.898V117.433H157.851C151.878 117.433 149.183 119.752 149.183 123.232C149.183 126.235 150.959 127.943 154.302 127.943C156.451 127.943 158.055 127.055 159.555 125.757L159.827 127.601L162.556 127.601ZM159.078 123.676C157.817 124.77 156.486 125.383 155.291 125.383C153.586 125.383 152.664 124.361 152.664 122.721C152.664 120.946 153.651 119.649 157.612 119.649H159.078L159.078 123.676Z" fill="url(#paint10_linear_289_1468)"/>
<path d="M169.827 127.601H174.165C176.653 122.346 178.43 116.204 179.417 110.609H175.732C175.152 115.043 173.993 119.649 172.354 124.189L171.634 121.049L168.394 110.609H164.605L169.827 127.601Z" fill="url(#paint11_linear_289_1468)"/>
<path fill-rule="evenodd" clip-rule="evenodd" d="M194.286 127.601V115.452C194.286 112.349 192.511 110.301 188.249 110.301C185.755 110.301 183.572 110.916 181.799 111.701L182.31 113.851C183.708 113.339 185.519 112.862 187.292 112.862C189.748 112.862 190.808 113.851 190.808 115.898V117.433H189.579C183.604 117.433 180.911 119.752 180.911 123.232C180.911 126.235 182.685 127.943 186.027 127.943C188.178 127.943 189.781 127.055 191.283 125.757L191.557 127.601L194.286 127.601ZM190.808 123.676C189.545 124.77 188.211 125.383 187.016 125.383C185.314 125.383 184.39 124.361 184.39 122.721C184.39 120.946 185.379 119.649 189.34 119.649H190.808V123.676Z" fill="url(#paint12_linear_289_1468)"/>
<path d="M141.023 133.728C142.776 133.08 144.378 131.934 145.369 130.487C146.36 128.999 146.662 127.474 146.662 123.699V104.566H142.967V123.965C142.967 126.789 142.776 127.97 142.316 128.886C141.785 129.916 140.64 131.022 139.305 131.707L141.023 133.728Z" fill="url(#paint13_linear_289_1468)"/>
<defs>
<linearGradient id="paint0_linear_289_1468" x1="197.471" y1="133.728" x2="139.305" y2="133.728" gradientUnits="userSpaceOnUse">
<stop stop-color="#EC2F4E"/>
<stop offset="1" stop-color="#840662"/>
</linearGradient>
<linearGradient id="paint1_linear_289_1468" x1="197.471" y1="133.728" x2="139.305" y2="133.728" gradientUnits="userSpaceOnUse">
<stop stop-color="#EC2F4E"/>
<stop offset="1" stop-color="#840662"/>
</linearGradient>
<linearGradient id="paint2_linear_289_1468" x1="197.471" y1="133.728" x2="139.305" y2="133.728" gradientUnits="userSpaceOnUse">
<stop stop-color="#EC2F4E"/>
<stop offset="1" stop-color="#840662"/>
</linearGradient>
<linearGradient id="paint3_linear_289_1468" x1="197.471" y1="133.728" x2="139.305" y2="133.728" gradientUnits="userSpaceOnUse">
<stop stop-color="#EC2F4E"/>
<stop offset="1" stop-color="#840662"/>
</linearGradient>
<linearGradient id="paint4_linear_289_1468" x1="197.471" y1="133.728" x2="139.305" y2="133.728" gradientUnits="userSpaceOnUse">
<stop stop-color="#EC2F4E"/>
<stop offset="1" stop-color="#840662"/>
</linearGradient>
<linearGradient id="paint5_linear_289_1468" x1="197.471" y1="133.728" x2="139.305" y2="133.728" gradientUnits="userSpaceOnUse">
<stop stop-color="#EC2F4E"/>
<stop offset="1" stop-color="#840662"/>
</linearGradient>
<linearGradient id="paint6_linear_289_1468" x1="197.471" y1="133.728" x2="139.305" y2="133.728" gradientUnits="userSpaceOnUse">
<stop stop-color="#EC2F4E"/>
<stop offset="1" stop-color="#840662"/>
</linearGradient>
<linearGradient id="paint7_linear_289_1468" x1="197.471" y1="133.728" x2="139.305" y2="133.728" gradientUnits="userSpaceOnUse">
<stop stop-color="#EC2F4E"/>
<stop offset="1" stop-color="#840662"/>
</linearGradient>
<linearGradient id="paint8_linear_289_1468" x1="197.471" y1="133.728" x2="139.305" y2="133.728" gradientUnits="userSpaceOnUse">
<stop stop-color="#EC2F4E"/>
<stop offset="1" stop-color="#840662"/>
</linearGradient>
<linearGradient id="paint9_linear_289_1468" x1="197.471" y1="133.728" x2="139.305" y2="133.728" gradientUnits="userSpaceOnUse">
<stop stop-color="#EC2F4E"/>
<stop offset="1" stop-color="#840662"/>
</linearGradient>
<linearGradient id="paint10_linear_289_1468" x1="197.471" y1="133.728" x2="139.305" y2="133.728" gradientUnits="userSpaceOnUse">
<stop stop-color="#EC2F4E"/>
<stop offset="1" stop-color="#840662"/>
</linearGradient>
<linearGradient id="paint11_linear_289_1468" x1="197.471" y1="133.728" x2="139.305" y2="133.728" gradientUnits="userSpaceOnUse">
<stop stop-color="#EC2F4E"/>
<stop offset="1" stop-color="#840662"/>
</linearGradient>
<linearGradient id="paint12_linear_289_1468" x1="197.471" y1="133.728" x2="139.305" y2="133.728" gradientUnits="userSpaceOnUse">
<stop stop-color="#EC2F4E"/>
<stop offset="1" stop-color="#840662"/>
</linearGradient>
<linearGradient id="paint13_linear_289_1468" x1="197.471" y1="133.728" x2="139.305" y2="133.728" gradientUnits="userSpaceOnUse">
<stop stop-color="#EC2F4E"/>
<stop offset="1" stop-color="#840662"/>
</linearGradient>
</defs>
</svg>
