<svg width="336" height="160" viewBox="0 0 336 160" fill="none" xmlns="http://www.w3.org/2000/svg">
<path fill-rule="evenodd" clip-rule="evenodd" d="M104 101.22C115.72 101.22 125.22 91.7196 125.22 79.9999C125.22 68.2802 115.72 58.7795 104 58.7795C92.2802 58.7795 82.7795 68.2802 82.7795 79.9999C82.7795 91.7196 92.2802 101.22 104 101.22ZM107.84 69.5387C109.239 67.8953 111.122 66.707 113.278 66.6314C115.431 66.5619 117.059 67.537 117.114 69.0829C117.135 69.7405 116.757 71.0188 115.444 71.0619C114.462 71.0967 113.784 70.5101 113.752 69.6181C113.742 69.29 113.826 69.005 114.051 68.6709C114.088 68.5983 114.12 68.5366 114.148 68.4833C114.284 68.2212 114.315 68.1615 114.311 68.0057C114.291 67.4448 113.442 67.4221 113.21 67.4342C110.025 67.5378 109.184 71.8375 108.505 75.3329L108.171 77.1766C110.004 77.4457 111.307 77.1146 112.033 76.6437C112.652 76.2426 112.418 75.8346 112.172 75.4075C112.012 75.1286 111.847 74.8416 111.912 74.5429C112.079 73.7734 112.779 73.403 113.336 73.3871C114.114 73.369 114.67 74.1756 114.653 74.9957C114.625 76.3504 112.826 78.2137 109.23 78.1366C108.792 78.1268 108.39 78.0958 108.013 78.0512L107.335 81.7953L107.317 81.8817C106.711 84.7099 105.89 88.5414 103.032 91.8884C100.552 94.8373 98.035 95.2961 96.9072 95.3332C94.7982 95.4058 93.3997 94.2802 93.3498 92.7804C93.3014 91.326 94.5857 90.5331 95.4301 90.5051C96.5549 90.4665 97.3335 91.2814 97.3645 92.2233C97.3925 93.0178 96.9775 93.2657 96.7031 93.4162C96.6763 93.4377 96.6475 93.4592 96.6179 93.4814C96.4446 93.6112 96.2435 93.7619 96.2526 94.0421C96.2601 94.1827 96.4106 94.5047 96.8785 94.4896C97.7472 94.4594 98.3322 94.0406 98.7441 93.7457C98.7548 93.7381 98.7654 93.7305 98.7758 93.7231C100.83 92.0109 101.62 89.0288 102.657 83.5967L102.874 82.2814L102.883 82.2368C103.233 80.4809 103.623 78.5284 104.216 76.5832C103.776 76.2513 103.389 75.8952 103.008 75.5455C102.139 74.7458 101.307 73.9795 99.9513 73.6124C98.6156 73.2503 97.8015 73.5587 97.2292 74.2822C96.5519 75.1386 96.7764 76.2536 97.4318 76.909L98.5128 78.1041C99.8394 79.6379 100.565 80.8307 100.292 82.4348C99.8598 84.9959 96.8082 86.9613 93.2009 85.8524C90.122 84.9022 89.5467 82.7243 89.9171 81.5217C90.2429 80.4656 91.082 80.2661 91.9037 80.517C92.7836 80.7884 93.1276 81.8573 92.8758 82.6797C92.8732 82.688 92.8703 82.6968 92.8673 82.7062C92.839 82.7945 92.7951 82.9314 92.711 83.1091C92.6691 83.202 92.6124 83.2903 92.5546 83.3805C92.4718 83.5097 92.3865 83.6427 92.3384 83.7985C92.1396 84.4426 93.024 84.8999 93.6393 85.0904C95.0174 85.5145 96.3599 84.7941 96.7023 83.6791C97.0176 82.6548 96.3712 81.9397 96.1021 81.6653L94.7982 80.2698C94.201 79.6039 92.8879 77.7511 93.529 75.6693C93.7761 74.8687 94.2955 74.0168 95.0506 73.4529C96.6434 72.2661 98.3744 72.0711 100.025 72.545C101.628 73.0076 102.606 73.9194 103.557 74.8067C103.872 75.0998 104.183 75.3903 104.513 75.661C105.257 73.4794 106.288 71.3408 107.84 69.5387Z" fill="url(#paint0_linear_289_1456)"/>
<path fill-rule="evenodd" clip-rule="evenodd" d="M211.443 74.0298C216.337 74.0298 219.617 77.5653 219.617 82.4561C219.617 87.065 216.272 90.8816 211.443 90.8816C206.584 90.8816 203.24 87.065 203.24 82.4561C203.24 77.5653 206.519 74.0298 211.443 74.0298ZM211.443 88.4869C214.915 88.4869 216.46 85.3301 216.46 82.4561C216.46 79.3961 214.598 76.4299 211.443 76.4299C208.256 76.4299 206.393 79.3961 206.393 82.4561C206.393 85.3301 207.941 88.4869 211.443 88.4869Z" fill="url(#paint1_linear_289_1456)"/>
<path d="M202.833 75.5279V74.4084H198.571V72.8784C198.571 70.7006 198.888 69.0572 201.442 69.0572C201.473 69.0572 201.505 69.0592 201.538 69.0612C201.555 69.0622 201.571 69.0632 201.588 69.064C201.59 69.064 201.591 69.0621 201.592 69.0601C201.593 69.0587 201.594 69.0574 201.595 69.0565L201.596 69.056C201.596 69.0558 201.597 69.0557 201.598 69.0557C202.307 69.1071 202.898 68.5303 202.937 67.8213L202.989 66.8491C202.389 66.7539 201.756 66.6602 201 66.6602C196.614 66.6602 195.605 69.2167 195.605 73.1309V74.4084H191.814V75.658C191.911 76.3058 192.466 76.8054 193.143 76.8054C193.144 76.8054 193.146 76.8061 193.147 76.8068C193.149 76.8076 193.151 76.8085 193.153 76.8085H195.605V90.5051H197.243C197.923 90.5051 198.478 89.9926 198.57 89.3402V76.8085H201.538C202.236 76.785 202.798 76.2264 202.833 75.5279Z" fill="url(#paint2_linear_289_1456)"/>
<path d="M163.313 74.4091L163.31 74.41C163.308 74.4111 163.305 74.4123 163.3 74.4123C162.676 74.4123 162.07 74.8416 161.806 75.4229L157.725 87.7279H157.661L153.669 75.429C153.407 74.8447 152.8 74.4115 152.171 74.4115C152.169 74.4115 152.167 74.4112 152.166 74.4109L152.163 74.4099C152.16 74.4088 152.158 74.4077 152.155 74.4077H150.086L155.546 89.431C155.601 89.5849 155.671 89.7625 155.743 89.945C155.923 90.3999 156.116 90.8884 156.116 91.1349C156.116 91.4524 155.232 95.1111 152.579 95.1111C152.514 95.1111 152.447 95.1035 152.383 95.099C151.707 95.0619 151.196 95.5344 151.083 96.2623L151.002 97.2896C151.076 97.3026 151.15 97.3162 151.225 97.33C151.694 97.4166 152.207 97.5111 153.023 97.5111C156.834 97.5111 158.041 94.1271 159.123 91.0948L159.21 90.8507L165.142 74.407H163.316V74.4085L163.315 74.4086L163.313 74.4091Z" fill="url(#paint3_linear_289_1456)"/>
<path d="M143.359 77.1383C141.269 76.134 139.32 75.1974 139.28 73.0507C139.287 70.3724 141.749 69.6686 143.645 69.6709C143.654 69.6694 143.661 69.6694 143.666 69.6694C144.49 69.6694 145.148 69.751 145.791 69.8924C145.792 69.8924 145.793 69.8923 145.794 69.8921C145.795 69.8916 145.797 69.8906 145.797 69.8894L145.799 69.8874C145.801 69.8847 145.803 69.8818 145.808 69.8818C146.488 69.9317 147.059 69.4003 147.139 68.7305L147.193 67.7577C145.949 67.4492 144.65 67.2913 143.519 67.2913C139.396 67.317 136.333 69.392 136.323 73.3523C136.328 76.8144 138.661 78.1562 141.172 79.3717C141.398 79.4803 141.626 79.5872 141.853 79.694C144.105 80.7506 146.33 81.7944 146.352 84.3903C146.338 87.3709 143.461 88.4693 141.478 88.4738C140.319 88.4693 139.06 88.1813 137.999 87.8464C137.334 87.7368 136.789 88.3234 136.702 89.0997L136.613 89.966C138.071 90.437 139.566 90.849 141.069 90.849H141.086C145.706 90.8149 149.297 88.9727 149.311 84.1885C149.306 80.4981 146.956 78.9476 144.457 77.6777C144.093 77.4915 143.724 77.3141 143.36 77.1388L143.359 77.1383Z" fill="url(#paint4_linear_289_1456)"/>
<path d="M189.327 90.5052H189.331C189.971 90.5052 190.505 90.0547 190.639 89.4552V80.1846C190.639 76.6808 189.159 74.0291 185.054 74.0291C183.602 74.0291 181.173 74.8515 180.068 77.1548C179.216 74.977 177.354 74.0291 175.493 74.0291C173.125 74.0291 171.515 74.881 170.38 76.7443H170.316V75.7435C170.307 75.0065 169.711 74.4115 168.973 74.4115C168.969 74.4115 168.966 74.4104 168.964 74.4094C168.962 74.4085 168.96 74.4078 168.958 74.4078H167.54V90.5045H169.149C169.893 90.5045 170.494 89.9005 170.494 89.1582C170.494 89.1417 170.499 89.1336 170.504 89.1239L170.508 89.1166V82.3926C170.508 79.3954 171.706 76.4291 174.735 76.4291C177.132 76.4291 177.609 78.9214 177.609 80.9102V90.5037H179.241C179.944 90.5037 180.51 89.9632 180.573 89.2768V82.3926C180.573 79.3954 181.774 76.4291 184.803 76.4291C187.201 76.4291 187.675 78.9214 187.675 80.9102V90.5037H189.327V90.5052Z" fill="url(#paint5_linear_289_1456)"/>
<path d="M235.172 90.5052H235.176C235.899 90.5052 236.482 89.9337 236.516 89.2179V80.942C236.516 76.6189 234.652 74.0291 230.486 74.0291C228.246 74.0291 226.101 75.135 225.215 76.9666H225.153V75.7639L225.152 75.7625C225.151 75.7619 225.15 75.7611 225.15 75.7594C225.15 75.0133 224.546 74.4115 223.805 74.4115L223.802 74.4113L223.801 74.4111C223.799 74.4107 223.797 74.41 223.796 74.4093C223.794 74.4085 223.792 74.4078 223.79 74.4078H222.28V90.5045H223.913C224.619 90.5045 225.192 89.9549 225.246 89.2625V83.0556C225.246 79.1429 226.762 76.4291 230.139 76.4291C232.73 76.5856 233.546 78.4149 233.546 82.1719V90.5037H235.172V90.5052Z" fill="url(#paint6_linear_289_1456)"/>
<path d="M251.143 74.4085C251.14 74.4085 251.137 74.4094 251.135 74.4103C251.133 74.4109 251.131 74.4116 251.13 74.4119L251.129 74.4121C251.128 74.4122 251.127 74.4123 251.127 74.4123C250.502 74.4123 249.895 74.8416 249.632 75.4229L245.552 87.7279H245.485L241.492 75.429C241.231 74.8447 240.623 74.4115 239.996 74.4115C239.994 74.4115 239.992 74.4111 239.991 74.4106L239.988 74.4095C239.985 74.4086 239.983 74.4077 239.981 74.4077H237.912L243.372 89.431C243.428 89.5887 243.5 89.7708 243.574 89.9581L243.574 89.9592C243.753 90.41 243.943 90.891 243.943 91.1349C243.943 91.4524 243.058 95.1111 240.405 95.1111C240.359 95.1111 240.314 95.1073 240.268 95.1035L240.224 95.1L240.209 95.099C239.532 95.0619 239.024 95.5344 238.907 96.2623L238.828 97.2896C238.864 97.2961 238.901 97.3027 238.937 97.3093C238.974 97.316 239.011 97.3228 239.048 97.3296C239.518 97.4163 240.032 97.5111 240.85 97.5111C244.659 97.5111 245.866 94.1297 246.948 91.0982L247.036 90.8507L252.97 74.407H251.143V74.4085Z" fill="url(#paint7_linear_289_1456)"/>
<defs>
<linearGradient id="paint0_linear_289_1456" x1="252.97" y1="101.22" x2="82.7795" y2="101.22" gradientUnits="userSpaceOnUse">
<stop stop-color="#EC2F4E"/>
<stop offset="1" stop-color="#840662"/>
</linearGradient>
<linearGradient id="paint1_linear_289_1456" x1="252.97" y1="101.22" x2="82.7795" y2="101.22" gradientUnits="userSpaceOnUse">
<stop stop-color="#EC2F4E"/>
<stop offset="1" stop-color="#840662"/>
</linearGradient>
<linearGradient id="paint2_linear_289_1456" x1="252.97" y1="101.22" x2="82.7795" y2="101.22" gradientUnits="userSpaceOnUse">
<stop stop-color="#EC2F4E"/>
<stop offset="1" stop-color="#840662"/>
</linearGradient>
<linearGradient id="paint3_linear_289_1456" x1="252.97" y1="101.22" x2="82.7795" y2="101.22" gradientUnits="userSpaceOnUse">
<stop stop-color="#EC2F4E"/>
<stop offset="1" stop-color="#840662"/>
</linearGradient>
<linearGradient id="paint4_linear_289_1456" x1="252.97" y1="101.22" x2="82.7795" y2="101.22" gradientUnits="userSpaceOnUse">
<stop stop-color="#EC2F4E"/>
<stop offset="1" stop-color="#840662"/>
</linearGradient>
<linearGradient id="paint5_linear_289_1456" x1="252.97" y1="101.22" x2="82.7795" y2="101.22" gradientUnits="userSpaceOnUse">
<stop stop-color="#EC2F4E"/>
<stop offset="1" stop-color="#840662"/>
</linearGradient>
<linearGradient id="paint6_linear_289_1456" x1="252.97" y1="101.22" x2="82.7795" y2="101.22" gradientUnits="userSpaceOnUse">
<stop stop-color="#EC2F4E"/>
<stop offset="1" stop-color="#840662"/>
</linearGradient>
<linearGradient id="paint7_linear_289_1456" x1="252.97" y1="101.22" x2="82.7795" y2="101.22" gradientUnits="userSpaceOnUse">
<stop stop-color="#EC2F4E"/>
<stop offset="1" stop-color="#840662"/>
</linearGradient>
</defs>
</svg>
