<svg width="25" height="25" viewBox="0 0 25 25" fill="none" xmlns="http://www.w3.org/2000/svg">
<path d="M10.4737 4.13275C7.71061 4.10327 5.2618 5.86794 4.42087 8.49785C3.57961 11.1288 4.55216 14.0008 6.81887 15.5793C7.27208 15.8949 7.38364 16.5182 7.06802 16.9714C6.75241 17.4246 6.12915 17.5362 5.67593 17.2205C2.6889 15.1404 1.40728 11.3558 2.51588 7.88872C3.62481 4.42067 6.85639 2.09404 10.495 2.13286C13.9042 2.16924 16.9308 4.27504 18.1486 7.41757C20.8447 7.87475 22.8767 10.2185 22.8789 13.0197C22.8789 14.8477 22.0211 16.2866 21.3273 16.9805C20.6334 17.6744 19.1838 18.7105 17.1881 18.7105L16.6684 18.7105C16.1161 18.7105 15.6684 18.2628 15.6684 17.7105C15.6684 17.1582 16.1161 16.7105 16.6684 16.7105L17.1908 16.7105C18.1693 16.7118 19.1244 16.3169 19.8163 15.6249C20.5031 14.9381 20.8802 14.0083 20.8789 13.0224C20.8775 11.0532 19.3291 9.43197 17.3621 9.34094C16.9367 9.32126 16.5705 9.03441 16.4495 8.62618C15.6657 5.98163 13.2396 4.16226 10.4737 4.13275Z" fill="url(#grad1)"/>
<path d="M11.4579 14.6263C12.0102 14.6263 12.4579 15.074 12.4579 15.6263V19.4647L13.182 18.7406C13.5725 18.3501 14.2057 18.3501 14.5962 18.7406C14.9868 19.1311 14.9868 19.7643 14.5962 20.1548L12.165 22.586C12.0603 22.6908 11.9381 22.7674 11.8078 22.816C11.721 22.8484 11.6286 22.8691 11.5323 22.8762C11.4828 22.8798 11.433 22.8798 11.3835 22.8762C11.2871 22.8691 11.1945 22.8483 11.1077 22.8158C10.9775 22.7673 10.8554 22.6907 10.7508 22.586L8.31957 20.1548C7.92905 19.7643 7.92905 19.1311 8.31957 18.7406C8.7101 18.3501 9.34326 18.3501 9.73379 18.7406L10.4579 19.4647V15.6263C10.4579 15.074 10.9056 14.6263 11.4579 14.6263Z" fill="url(#grad1)"/>
<defs>
<linearGradient id="grad1" x1="26.3328" y1="26.9936" x2="26.3328" y2="-1.41415" gradientUnits="userSpaceOnUse">
<stop stop-color="#EC2F4E"/>
<stop offset="1" stop-color="#840662"/>
</linearGradient>
</defs>
</svg>
