<svg width="40" height="40" viewBox="0 0 40 40" fill="none" xmlns="http://www.w3.org/2000/svg">
<path d="M35 16.6719C35 28.3385 20 38.3385 20 38.3385C20 38.3385 5 28.3385 5 16.6719C5 12.6936 6.58035 8.87832 9.3934 6.06527C12.2064 3.25223 16.0218 1.67187 20 1.67188C23.9782 1.67188 27.7936 3.25223 30.6066 6.06527C33.4196 8.87832 35 12.6936 35 16.6719Z" fill="url(#paint0_linear_365_4191)"/>
<path d="M20 21.6719C22.7614 21.6719 25 19.4333 25 16.6719C25 13.9105 22.7614 11.6719 20 11.6719C17.2386 11.6719 15 13.9105 15 16.6719C15 19.4333 17.2386 21.6719 20 21.6719Z" fill="white"/>
<defs>
<linearGradient id="paint0_linear_365_4191" x1="35" y1="38.3385" x2="5" y2="38.3385" gradientUnits="userSpaceOnUse">
<stop stop-color="#EC2F4E"/>
<stop offset="1" stop-color="#840662"/>
</linearGradient>
</defs>
</svg>
