<?xml version="1.0" standalone="no"?>
<!DOCTYPE svg PUBLIC "-//W3C//DTD SVG 20010904//EN"
 "http://www.w3.org/TR/2001/REC-SVG-20010904/DTD/svg10.dtd">
<svg version="1.0" xmlns="http://www.w3.org/2000/svg"
 width="512.000000pt" height="512.000000pt" viewBox="0 0 512.000000 512.000000"
 preserveAspectRatio="xMidYMid meet">
<metadata>
Created by potrace 1.14, written by Peter Selinger 2001-2017
</metadata>
<g transform="translate(0.000000,512.000000) scale(0.100000,-0.100000)"
fill="#000000" stroke="none">
<path d="M2151 4933 c-208 -63 -418 -205 -561 -378 -89 -109 -197 -306 -240
-437 -19 -59 -31 -76 -145 -192 -144 -148 -161 -180 -138 -259 17 -59 7 -96
-40 -147 -26 -29 -304 -261 -432 -360 -94 -74 -121 -111 -128 -178 -4 -46 23
-126 62 -180 17 -24 23 -49 26 -109 14 -311 133 -578 359 -808 82 -84 205
-190 211 -183 1 2 5 33 9 70 11 115 63 221 144 294 29 26 175 101 205 106 15
2 26 -15 52 -79 18 -46 31 -83 28 -83 -3 0 1 -10 9 -22 7 -13 24 -50 37 -83
80 -207 204 -479 351 -770 126 -249 159 -311 230 -435 21 -36 47 -82 59 -103
49 -87 186 -313 198 -325 7 -7 13 -16 13 -20 0 -4 4 -13 9 -21 10 -15 53 15
221 153 209 171 478 436 616 606 16 19 31 37 34 40 10 9 146 185 175 227 17
24 32 43 35 43 3 0 18 -24 34 -53 16 -28 48 -83 70 -122 23 -38 48 -83 56 -98
18 -36 22 -31 100 108 232 415 356 770 414 1185 7 51 18 226 19 293 0 31 1 57
3 57 4 0 239 -177 299 -225 22 -17 57 -45 79 -61 l39 -28 -6 99 c-21 339 -124
675 -303 985 -31 55 -156 240 -182 272 -144 172 -231 260 -357 363 -78 64
-239 175 -254 175 -5 0 -11 3 -13 8 -3 8 -23 19 -206 119 l-122 67 27 15 c16
9 30 15 33 16 6 0 184 76 188 80 7 6 -202 78 -293 101 -126 32 -198 45 -318
59 -34 4 -71 9 -82 11 -11 3 -85 6 -165 8 -138 4 -243 -6 -360 -33 -24 -5 -46
-9 -47 -7 -2 2 14 62 36 134 l39 132 -27 -2 c-14 -1 -59 -12 -100 -25z"/>
</g>
</svg>
