<svg width="336" height="160" viewBox="0 0 336 160" fill="none" xmlns="http://www.w3.org/2000/svg">
<g clip-path="url(#clip0_289_1475)">
<path d="M191.634 67.0486C193.738 70.8877 194.935 75.2935 194.935 79.98C194.935 89.9245 189.546 98.6066 181.532 103.279L189.765 79.475C191.303 75.6295 191.815 72.5546 191.815 69.8204C191.815 68.8281 191.75 67.9071 191.634 67.0486ZM171.695 67.342C173.318 67.2567 174.78 67.086 174.78 67.086C176.233 66.914 176.062 64.7795 174.609 64.8645C174.609 64.8645 170.242 65.2072 167.424 65.2072C164.775 65.2072 160.325 64.8645 160.325 64.8645C158.871 64.7795 158.701 67 160.154 67.086C160.154 67.086 161.529 67.2567 162.981 67.342L167.181 78.8487L161.281 96.54L151.465 67.342C153.089 67.2567 154.55 67.086 154.55 67.086C156.002 66.914 155.83 64.7795 154.378 64.8645C154.378 64.8645 150.013 65.2072 147.194 65.2072C146.688 65.2072 146.092 65.1948 145.459 65.1745C150.279 57.8572 158.563 53.0251 167.981 53.0251C174.998 53.0251 181.387 55.7081 186.183 60.1022C186.067 60.0952 185.953 60.0806 185.834 60.0806C183.186 60.0806 181.307 62.3871 181.307 64.8645C181.307 67.086 182.589 68.9654 183.955 71.1866C184.98 72.9819 186.177 75.2881 186.177 78.6206C186.177 80.9274 185.29 83.6047 184.126 87.3344L181.437 96.3176L171.695 67.342ZM167.981 106.937C165.335 106.937 162.781 106.549 160.366 105.839L168.454 82.3379L176.739 105.037C176.793 105.171 176.86 105.294 176.932 105.409C174.13 106.395 171.12 106.937 167.981 106.937ZM141.026 79.98C141.026 76.072 141.864 72.3623 143.36 69.0102L156.218 104.239C147.225 99.8706 141.026 90.6495 141.026 79.98ZM167.981 50C151.449 50 138 63.4489 138 79.98C138 96.5118 151.449 109.962 167.981 109.962C184.512 109.962 197.962 96.5118 197.962 79.98C197.962 63.4489 184.512 50 167.981 50Z" fill="url(#paint0_linear_289_1475)"/>
</g>
<defs>
<linearGradient id="paint0_linear_289_1475" x1="197.962" y1="109.962" x2="138" y2="109.962" gradientUnits="userSpaceOnUse">
<stop stop-color="#EC2F4E"/>
<stop offset="1" stop-color="#840662"/>
</linearGradient>
<clipPath id="clip0_289_1475">
<rect width="60" height="60" fill="white" transform="translate(138 50)"/>
</clipPath>
</defs>
</svg>
