<svg width="336" height="160" viewBox="0 0 336 160" fill="none" xmlns="http://www.w3.org/2000/svg">
<path d="M175.913 79.4857C175.913 84.4083 171.922 88.3988 167 88.3988C162.077 88.3988 158.087 84.4083 158.087 79.4857C158.087 74.5632 162.077 70.5727 167 70.5727C171.922 70.5727 175.913 74.5632 175.913 79.4857Z" fill="url(#paint0_linear_289_1457)"/>
<path fill-rule="evenodd" clip-rule="evenodd" d="M167 47.5947C165.288 45.8787 163.582 44.3302 161.904 42.9662C158.254 39.9996 154.69 37.8715 151.43 36.8166C148.169 35.7618 145.101 35.7497 142.587 37.2011C140.073 38.6526 138.549 41.3158 137.833 44.6669C137.116 48.0181 137.177 52.1684 137.921 56.8128C138.263 58.9481 138.752 61.1993 139.381 63.5401C137.039 64.1649 134.845 64.8676 132.825 65.639C128.431 67.3168 124.806 69.339 122.262 71.6354C119.718 73.9317 118.174 76.5828 118.174 79.4856C118.174 82.3885 119.718 85.0396 122.262 87.3359C124.806 89.6323 128.431 91.6545 132.825 93.3322C134.845 94.1037 137.039 94.8064 139.382 95.4312C138.752 97.772 138.263 100.023 137.921 102.159C137.177 106.803 137.116 110.953 137.833 114.305C138.549 117.656 140.073 120.319 142.587 121.77C145.101 123.222 148.169 123.21 151.43 122.155C154.69 121.1 158.254 118.972 161.904 116.005C163.582 114.641 165.288 113.093 167 111.377C168.712 113.093 170.418 114.641 172.096 116.005C175.746 118.972 179.31 121.1 182.57 122.155C185.831 123.21 188.899 123.222 191.413 121.77C193.927 120.319 195.451 117.656 196.167 114.305C196.884 110.953 196.823 106.803 196.079 102.159C195.737 100.023 195.248 97.772 194.618 95.4312C196.961 94.8063 199.154 94.1036 201.175 93.3322C205.569 91.6545 209.194 89.6323 211.738 87.3359C214.281 85.0396 215.826 82.3885 215.826 79.4856C215.826 76.5828 214.281 73.9317 211.738 71.6354C209.194 69.339 205.569 67.3168 201.175 65.639C199.154 64.8676 196.961 64.165 194.619 63.5401C195.249 61.1993 195.737 58.948 196.079 56.8127C196.823 52.1683 196.884 48.018 196.167 44.6667C195.451 41.3156 193.927 38.6524 191.413 37.201C188.899 35.7496 185.831 35.7617 182.57 36.8165C179.31 37.8714 175.746 39.9995 172.096 42.9661C170.418 44.3301 168.712 45.8787 167 47.5947ZM190.413 38.9331C192.266 40.003 193.565 42.0597 194.212 45.0851C194.859 48.1103 194.826 51.993 194.104 56.4963C193.772 58.5693 193.296 60.7623 192.68 63.0488C188.173 61.9654 183.176 61.1605 177.85 60.6928C174.782 56.3146 171.586 52.3894 168.395 49.0282C170.067 47.3511 171.728 45.8423 173.357 44.5181C176.897 41.6417 180.243 39.6716 183.186 38.7194C186.13 37.7671 188.56 37.8632 190.413 38.9331ZM165.605 49.0282C163.933 47.3512 162.272 45.8423 160.643 44.5182C157.103 41.6418 153.757 39.6718 150.814 38.7195C147.87 37.7672 145.44 37.8633 143.587 38.9332C141.734 40.0031 140.435 42.0598 139.788 45.0852C139.141 48.1104 139.174 51.9932 139.896 56.4964C140.228 58.5693 140.704 60.7623 141.32 63.0488C145.827 61.9654 150.824 61.1604 156.15 60.6928C159.218 56.3146 162.413 52.3894 165.605 49.0282ZM192.134 64.9746C188.219 64.0377 183.911 63.3117 179.321 62.8416C180.816 65.0776 182.274 67.42 183.68 69.8554C185.086 72.2907 186.386 74.725 187.575 77.1377C189.462 72.9276 190.988 68.8335 192.134 64.9746ZM188.7 79.4858C190.958 74.6399 192.759 69.9096 194.075 65.4649C196.363 66.0745 198.5 66.7586 200.461 67.5075C204.722 69.1343 208.101 71.047 210.398 73.12C212.694 75.1931 213.826 77.3459 213.826 79.4856C213.826 81.6254 212.694 83.7782 210.398 85.8513C208.101 87.9243 204.722 89.837 200.461 91.4638C198.5 92.2127 196.363 92.8968 194.074 93.5064C192.759 89.0618 190.958 84.3316 188.7 79.4858ZM186.489 79.4858C185.135 76.6393 183.62 73.7505 181.948 70.8554C180.277 67.9601 178.533 65.2033 176.745 62.6072C173.602 62.3567 170.343 62.2248 167 62.2248C163.657 62.2248 160.398 62.3567 157.255 62.6072C155.467 65.2033 153.723 67.9601 152.052 70.8552C150.38 73.7504 148.865 76.6392 147.511 79.4858C148.865 82.3323 150.38 85.2211 152.052 88.1162C153.723 91.0113 155.467 93.768 157.255 96.364C160.397 96.6145 163.657 96.7465 167 96.7465C170.343 96.7465 173.603 96.6145 176.745 96.364C178.533 93.768 180.277 91.0112 181.948 88.1161C183.62 85.221 185.135 82.3323 186.489 79.4858ZM179.321 96.1296C180.816 93.8937 182.274 91.5514 183.68 89.1161C185.086 86.6808 186.386 84.2466 187.575 81.8339C189.462 86.044 190.988 90.1379 192.134 93.9967C188.219 94.9336 183.911 95.6595 179.321 96.1296ZM175.254 98.4777C172.57 98.6545 169.812 98.7465 167 98.7465C164.188 98.7465 161.43 98.6545 158.746 98.4777C161.448 102.218 164.231 105.586 167 108.508C169.769 105.586 172.552 102.218 175.254 98.4777ZM168.395 109.943C171.587 106.582 174.782 102.657 177.85 98.2784C183.176 97.8108 188.173 97.0058 192.68 95.9225C193.296 98.2091 193.772 100.402 194.104 102.475C194.826 106.978 194.859 110.861 194.212 113.886C193.564 116.912 192.266 118.968 190.413 120.038C188.56 121.108 186.13 121.204 183.186 120.252C180.242 119.3 176.896 117.33 173.357 114.453C171.728 113.129 170.067 111.62 168.395 109.943ZM165.605 109.943C162.413 106.582 159.218 102.657 156.15 98.2784C150.824 97.8108 145.827 97.0059 141.32 95.9225C140.704 98.2091 140.228 100.402 139.896 102.475C139.174 106.978 139.141 110.861 139.788 113.886C140.436 116.912 141.734 118.968 143.587 120.038C145.44 121.108 147.87 121.204 150.814 120.252C153.758 119.3 157.104 117.33 160.643 114.453C162.272 113.129 163.933 111.62 165.605 109.943ZM141.866 93.9967C145.781 94.9337 150.089 95.6595 154.679 96.1296C153.184 93.8938 151.726 91.5515 150.32 89.1162C148.914 86.6809 147.614 84.2466 146.425 81.8339C144.538 86.044 143.012 90.1379 141.866 93.9967ZM146.425 77.1377C147.614 74.725 148.914 72.2906 150.32 69.8552C151.726 67.4199 153.184 65.0775 154.679 62.8416C150.089 63.3117 145.781 64.0376 141.866 64.9746C143.012 68.8335 144.538 72.9275 146.425 77.1377ZM145.3 79.4858C143.042 84.3316 141.241 89.0618 139.926 93.5064C137.637 92.8969 135.5 92.2127 133.538 91.4638C129.278 89.837 125.899 87.9243 123.602 85.8513C121.306 83.7782 120.174 81.6254 120.174 79.4856C120.174 77.3459 121.306 75.1931 123.602 73.12C125.899 71.047 129.278 69.1343 133.538 67.5075C135.5 66.7586 137.637 66.0744 139.925 65.4649C141.241 69.9096 143.042 74.6399 145.3 79.4858ZM158.746 60.4935C161.43 60.3167 164.188 60.2248 167 60.2248C169.812 60.2248 172.57 60.3167 175.254 60.4935C172.552 56.7536 169.769 53.3855 167 50.4637C164.231 53.3855 161.448 56.7536 158.746 60.4935Z" fill="url(#paint1_linear_289_1457)"/>
<defs>
<linearGradient id="paint0_linear_289_1457" x1="215.826" y1="122.908" x2="118.174" y2="122.908" gradientUnits="userSpaceOnUse">
<stop stop-color="#EC2F4E"/>
<stop offset="1" stop-color="#840662"/>
</linearGradient>
<linearGradient id="paint1_linear_289_1457" x1="215.826" y1="122.908" x2="118.174" y2="122.908" gradientUnits="userSpaceOnUse">
<stop stop-color="#EC2F4E"/>
<stop offset="1" stop-color="#840662"/>
</linearGradient>
</defs>
</svg>
