<svg width="336" height="160" viewBox="0 0 336 160" fill="none" xmlns="http://www.w3.org/2000/svg">
<g clip-path="url(#clip0_289_1470)">
<path fill-rule="evenodd" clip-rule="evenodd" d="M136.974 67.0068C136.988 67.5103 136.993 68.0129 136.996 68.5157C137 69.089 137 69.6625 137 70.2358L137 89.1595C137 89.7125 137 90.2648 136.996 90.8179C136.993 91.3208 136.988 91.8233 136.974 92.3259C136.945 93.4216 136.88 94.5269 136.685 95.6098C136.488 96.7098 136.165 97.7337 135.656 98.7329C135.157 99.7147 134.504 100.613 133.725 101.391C132.946 102.17 132.048 102.823 131.066 103.323C130.067 103.832 129.044 104.154 127.945 104.352C126.861 104.546 125.756 104.611 124.66 104.641C124.156 104.654 123.654 104.66 123.151 104.663C122.618 104.667 122.085 104.667 121.553 104.667H102.447C101.914 104.667 101.382 104.667 100.849 104.663C100.346 104.66 99.8429 104.654 99.3405 104.641C98.2448 104.611 97.1389 104.547 96.0556 104.352C94.9561 104.154 93.933 103.832 92.9343 103.323C91.9522 102.823 91.0538 102.17 90.2753 101.391C89.4962 100.613 88.8432 99.7147 88.3438 98.7329C87.8349 97.7337 87.5125 96.7097 87.3148 95.6098C87.1203 94.5269 87.0557 93.4216 87.0262 92.3259C87.0124 91.8233 87.0066 91.3207 87.0033 90.8179C86.9999 90.29 87 89.7628 87 89.235L87 70.1187C87 69.5844 86.9999 69.05 87.0033 68.5156C87.0066 68.0128 87.0124 67.5102 87.0262 67.0067C87.0557 65.9116 87.1203 64.8066 87.3148 63.7232C87.5125 62.6229 87.8349 61.5999 88.3438 60.6004C88.8432 59.6188 89.4962 58.7206 90.2753 57.9417C90.4699 57.747 90.672 57.5602 90.8811 57.3816C91.5082 56.846 92.1977 56.3851 92.9342 56.0103C93.1839 55.8833 93.4351 55.7678 93.6886 55.663C94.4491 55.3486 95.2309 55.13 96.0553 54.9819C96.8679 54.8355 97.6932 54.7626 98.5172 54.7229C98.792 54.7097 99.0665 54.7001 99.3404 54.6927C99.8429 54.679 100.346 54.6733 100.849 54.6702C101.446 54.6667 102.043 54.6667 102.641 54.6667H121.359C121.956 54.6667 122.554 54.6667 123.151 54.6701C123.654 54.6732 124.157 54.679 124.66 54.6926C125.756 54.7222 126.861 54.7865 127.945 54.9818C129.044 55.1793 130.067 55.5021 131.066 56.0103C132.048 56.51 132.946 57.1629 133.725 57.9418C134.504 58.7207 135.157 59.6189 135.656 60.6005C136.165 61.5999 136.488 62.623 136.685 63.7232C136.88 64.8067 136.945 65.9117 136.974 67.0068ZM126.618 85.5287L126.619 85.5305C130.915 90.8164 129.747 96.4826 129.197 95.4134C126.951 91.0446 122.768 92.1599 120.65 93.2592C120.474 93.3639 120.295 93.463 120.114 93.5603C120.104 93.5662 120.093 93.5724 120.083 93.5786C120.07 93.5858 120.058 93.5929 120.047 93.5998L120.051 93.5947C115.643 95.9371 109.724 96.1105 103.772 93.5528C98.7818 91.4078 94.6812 87.7335 92.0188 83.4748C93.3726 84.4743 94.8351 85.354 96.3908 86.0831C102.681 89.0289 108.998 88.8161 113.468 86.0802C107.105 81.1868 101.794 74.8142 97.7218 69.6494C96.9384 68.7231 96.2257 67.7609 95.6266 66.7617C100.503 71.2252 108.207 76.8302 110.971 78.3815C105.104 72.1828 99.9342 64.5493 100.177 64.7937C109.417 74.1044 117.943 79.3684 117.943 79.3684C118.264 79.5455 118.503 79.687 118.693 79.8117C118.867 79.363 119.026 78.9013 119.157 78.4202C120.633 73.027 118.972 66.8599 115.216 61.7683C123.787 66.9151 128.852 76.6902 126.776 84.9581C126.736 85.1185 126.69 85.2748 126.644 85.4311C126.634 85.4629 126.625 85.4946 126.616 85.5264L126.618 85.5287Z" fill="url(#paint0_linear_289_1470)"/>
<path d="M164.269 92.8576C159.675 92.8576 156.366 90.5833 155.975 87.1146L151.449 87.1147C151.817 93.0187 156.711 96.8331 163.878 96.8331C171.598 96.8331 176.446 92.9962 176.446 86.885C176.446 82.0832 173.643 79.4183 166.797 77.7408L163.259 76.822C158.848 75.6962 157.055 74.2483 157.055 71.8131C157.055 68.6888 159.95 66.552 164.109 66.552C168.313 66.552 171.116 68.6663 171.461 72.1125H175.94C175.779 66.4833 170.978 62.5776 164.224 62.5776C157.262 62.5776 152.368 66.4607 152.368 72.0663C152.368 76.6148 155.125 79.3721 161.237 80.8885L165.487 81.9683C169.875 83.0705 171.782 84.7254 171.782 87.4365C171.782 90.5833 168.635 92.8576 164.269 92.8576Z" fill="url(#paint1_linear_289_1470)"/>
<path d="M200.4 96.2814H204.904L211.543 72.2725H207.224L202.583 91.5483H202.491L197.207 72.2725H192.98L187.742 91.5483H187.65L183.009 72.2725H178.644L185.307 96.2814H189.809L195.048 77.9478H195.139L200.4 96.2814Z" fill="url(#paint2_linear_289_1470)"/>
<path d="M217.093 63.198C215.646 63.198 214.451 64.37 214.451 65.8167C214.451 67.2646 215.646 68.4591 217.093 68.4591C218.564 68.4591 219.758 67.2645 219.758 65.8167C219.758 64.37 218.564 63.198 217.093 63.198Z" fill="url(#paint3_linear_289_1470)"/>
<path d="M214.911 72.2725H219.299V96.2814H214.911V72.2725Z" fill="url(#paint4_linear_289_1470)"/>
<path d="M247.955 75.8109V72.2723H243.314V66.5293H238.948V72.2723H230.561V70.159C230.583 68.0222 231.41 67.126 233.386 67.126C234.029 67.126 234.673 67.1957 235.201 67.287V63.8408C234.42 63.7259 233.708 63.6572 232.881 63.6572C228.194 63.6572 226.218 65.6105 226.218 70.0903V72.2723H222.864V75.8109H226.218V96.2812H230.583V75.8109H238.949V89.9865C238.949 94.6274 240.718 96.4186 245.312 96.4186C246.3 96.4186 247.426 96.3499 247.932 96.2351V92.6515C247.633 92.6976 246.76 92.7663 246.277 92.7663C244.233 92.7663 243.314 91.8014 243.314 89.642V75.8109H247.955Z" fill="url(#paint5_linear_289_1470)"/>
</g>
<defs>
<linearGradient id="paint0_linear_289_1470" x1="247.955" y1="104.667" x2="87" y2="104.667" gradientUnits="userSpaceOnUse">
<stop stop-color="#EC2F4E"/>
<stop offset="1" stop-color="#840662"/>
</linearGradient>
<linearGradient id="paint1_linear_289_1470" x1="247.955" y1="104.667" x2="87" y2="104.667" gradientUnits="userSpaceOnUse">
<stop stop-color="#EC2F4E"/>
<stop offset="1" stop-color="#840662"/>
</linearGradient>
<linearGradient id="paint2_linear_289_1470" x1="247.955" y1="104.667" x2="87" y2="104.667" gradientUnits="userSpaceOnUse">
<stop stop-color="#EC2F4E"/>
<stop offset="1" stop-color="#840662"/>
</linearGradient>
<linearGradient id="paint3_linear_289_1470" x1="247.955" y1="104.667" x2="87" y2="104.667" gradientUnits="userSpaceOnUse">
<stop stop-color="#EC2F4E"/>
<stop offset="1" stop-color="#840662"/>
</linearGradient>
<linearGradient id="paint4_linear_289_1470" x1="247.955" y1="104.667" x2="87" y2="104.667" gradientUnits="userSpaceOnUse">
<stop stop-color="#EC2F4E"/>
<stop offset="1" stop-color="#840662"/>
</linearGradient>
<linearGradient id="paint5_linear_289_1470" x1="247.955" y1="104.667" x2="87" y2="104.667" gradientUnits="userSpaceOnUse">
<stop stop-color="#EC2F4E"/>
<stop offset="1" stop-color="#840662"/>
</linearGradient>
<clipPath id="clip0_289_1470">
<rect width="160.955" height="50" fill="white" transform="translate(87 54.6667)"/>
</clipPath>
</defs>
</svg>
