<svg width="336" height="160" viewBox="0 0 336 160" fill="none" xmlns="http://www.w3.org/2000/svg">
<g clip-path="url(#clip0_289_1455)">
<path fill-rule="evenodd" clip-rule="evenodd" d="M146.742 66.493V88.9901H154.94V92.8705H142.377V66.493H146.742ZM170.348 77.6842V75.3117H174.484V92.8705H170.347V90.496C169.791 91.3754 169 92.0666 167.975 92.5685C166.951 93.0705 165.92 93.3215 164.882 93.3215C163.541 93.3215 162.314 93.0764 161.201 92.5872C160.118 92.1188 159.142 91.4327 158.335 90.5715C157.538 89.7164 156.907 88.7195 156.476 87.6323C156.029 86.5053 155.803 85.3026 155.812 84.0901C155.812 82.8597 156.033 81.6852 156.476 80.5666C156.904 79.4726 157.535 78.4694 158.335 77.6097C159.142 76.7483 160.118 76.0619 161.201 75.593C162.314 75.1028 163.541 74.8577 164.882 74.8577C165.92 74.8577 166.951 75.1097 167.975 75.6127C169 76.1146 169.791 76.8058 170.348 77.6842ZM169.968 86.2381C170.222 85.5511 170.351 84.8238 170.348 84.0911C170.348 83.3362 170.221 82.6205 169.968 81.9421C169.73 81.2895 169.37 80.6885 168.906 80.1715C168.442 79.6631 167.88 79.253 167.255 78.9656C166.609 78.6646 165.894 78.5136 165.11 78.5136C164.325 78.5136 163.617 78.6646 162.984 78.9656C162.352 79.2676 161.808 79.6695 161.353 80.1715C160.89 80.686 160.536 81.288 160.31 81.9421C160.067 82.632 159.945 83.3587 159.949 84.0901C159.949 84.844 160.069 85.5607 160.31 86.2372C160.535 86.8916 160.89 87.494 161.353 88.0087C161.812 88.5142 162.366 88.924 162.984 89.2146C163.617 89.5166 164.325 89.6666 165.11 89.6666C165.894 89.6666 166.61 89.5166 167.255 89.2156C167.881 88.9284 168.442 88.5183 168.906 88.0097C169.37 87.4925 169.73 86.8911 169.968 86.2381ZM177.748 92.8695V75.3107H188.982V79.3519H181.884V92.8695H177.748ZM203.974 77.6842V75.3117H208.11V92.8705H203.973V90.496C203.416 91.3754 202.625 92.0666 201.6 92.5685C200.576 93.0705 199.545 93.3215 198.508 93.3215C197.166 93.3215 195.939 93.0764 194.826 92.5872C193.743 92.1188 192.768 91.4327 191.961 90.5715C191.163 89.7164 190.533 88.7195 190.102 87.6323C189.655 86.5053 189.429 85.3026 189.437 84.0901C189.437 82.8597 189.658 81.6852 190.102 80.5666C190.53 79.4726 191.16 78.4694 191.961 77.6097C192.768 76.7483 193.743 76.0619 194.826 75.593C195.939 75.1028 197.166 74.8577 198.508 74.8577C199.545 74.8577 200.576 75.1097 201.601 75.6127C202.625 76.1146 203.416 76.8058 203.974 77.6842ZM203.593 86.2381C203.847 85.551 203.976 84.8237 203.973 84.0911C203.973 83.3362 203.845 82.6205 203.593 81.9421C203.355 81.2894 202.994 80.6884 202.53 80.1715C202.066 79.6631 201.505 79.253 200.879 78.9656C200.234 78.6646 199.52 78.5136 198.735 78.5136C197.951 78.5136 197.242 78.6646 196.61 78.9656C195.977 79.2676 195.433 79.6695 194.978 80.1715C194.515 80.6859 194.16 81.288 193.934 81.9421C193.691 82.632 193.569 83.3587 193.574 84.0901C193.574 84.844 193.693 85.5607 193.934 86.2372C194.16 86.8917 194.515 87.4941 194.978 88.0087C195.438 88.5142 195.992 88.924 196.61 89.2146C197.242 89.5166 197.951 89.6666 198.735 89.6666C199.52 89.6666 200.235 89.5166 200.879 89.2156C201.505 88.9284 202.067 88.5183 202.53 88.0097C202.995 87.4926 203.355 86.8912 203.593 86.2381ZM224.694 75.3107H228.884L222.094 92.8695H216.896L210.106 75.3107H214.296L219.495 88.7568L224.694 75.3107ZM237.906 74.8597C243.539 74.8597 247.38 79.8156 246.659 85.6166H232.935C232.935 87.1313 234.475 90.0597 238.133 90.0597C241.28 90.0597 243.388 87.3117 243.39 87.3097L246.184 89.4568C243.686 92.1058 241.64 93.3225 238.436 93.3225C232.711 93.3225 228.831 89.7264 228.831 84.0911C228.831 78.993 232.841 74.8597 237.906 74.8597ZM232.946 82.5646H242.86C242.829 82.2264 242.292 78.1215 237.874 78.1215C233.455 78.1215 232.978 82.2264 232.946 82.5646ZM249.353 92.8695V66.493H253.49V92.8695H249.353ZM129.788 66.2872C129.806 66.3536 129.816 66.4222 129.816 66.4911V77.2009C129.815 77.3386 129.779 77.4739 129.709 77.5928C129.64 77.7118 129.54 77.8103 129.421 77.8783L120.368 83.0538V93.3117C120.367 93.4492 120.331 93.5843 120.261 93.7031C120.192 93.8219 120.092 93.9202 119.973 93.9881L101.076 104.791C101.033 104.817 100.985 104.831 100.939 104.848C100.921 104.854 100.904 104.865 100.886 104.87C100.754 104.904 100.615 104.904 100.482 104.87C100.461 104.864 100.441 104.852 100.421 104.844C100.376 104.829 100.332 104.815 100.291 104.791L81.3941 93.9901C81.2744 93.9219 81.1748 93.8232 81.1056 93.704C81.0364 93.5849 80.9999 93.4495 81 93.3117V61.1823C81.0002 61.1134 81.0094 61.0448 81.0275 60.9783C81.0333 60.9548 81.0471 60.9342 81.0549 60.9127C81.0706 60.8715 81.0843 60.8293 81.1059 60.7911C81.1206 60.7656 81.1422 60.745 81.1588 60.7225C81.1824 60.6911 81.202 60.6578 81.2294 60.6303C81.252 60.6078 81.2814 60.5911 81.3069 60.5715C81.3353 60.5499 81.3608 60.5244 81.3931 60.5058L81.3941 60.5048L90.8431 55.1038C90.9627 55.0359 91.0978 55.0002 91.2353 55.0002C91.3728 55.0002 91.5079 55.0359 91.6275 55.1038L101.076 60.5048H101.078C101.11 60.5244 101.135 60.5499 101.165 60.5715C101.19 60.5911 101.219 60.6078 101.241 60.6303C101.269 60.6578 101.288 60.6911 101.312 60.7215C101.329 60.745 101.351 60.7656 101.366 60.7911C101.387 60.8293 101.401 60.8715 101.417 60.9127C101.425 60.9342 101.437 60.9548 101.444 60.9783C101.462 61.0449 101.471 61.1134 101.471 61.1823V81.2499L109.345 76.7489V66.4911C109.345 66.4222 109.354 66.3537 109.372 66.2872C109.378 66.2636 109.391 66.244 109.4 66.2215C109.415 66.1803 109.428 66.1381 109.45 66.0999C109.465 66.0744 109.486 66.0538 109.504 66.0313C109.527 65.9999 109.547 65.9666 109.575 65.9401C109.597 65.9176 109.625 65.9009 109.651 65.8813C109.68 65.8587 109.706 65.8323 109.738 65.8146V65.8136L119.187 60.4127C119.307 60.3444 119.442 60.3085 119.58 60.3085C119.718 60.3085 119.853 60.3444 119.973 60.4127L129.421 65.8136C129.454 65.8332 129.48 65.8587 129.51 65.8803C129.534 65.8999 129.564 65.9176 129.586 65.9391C129.614 65.9666 129.633 65.9999 129.656 66.0303C129.674 66.0538 129.695 66.0744 129.71 66.0999C129.732 66.1381 129.745 66.1803 129.761 66.2215C129.77 66.244 129.782 66.2636 129.788 66.2872ZM128.241 76.7489V67.843L124.934 69.7332L120.368 72.344V81.2499L128.241 76.7489ZM118.793 92.8597V83.9479L114.299 86.495L101.471 93.7646V102.76L118.793 92.8578V92.8597ZM82.5745 62.5342V92.8597L99.8961 102.762V93.7676L90.8471 88.6832L90.8451 88.6803L90.8412 88.6793C90.8098 88.6617 90.7853 88.6362 90.7569 88.6146C90.7314 88.595 90.7039 88.5793 90.6814 88.5578L90.6794 88.5548C90.6539 88.5303 90.6363 88.4999 90.6147 88.4725C90.5951 88.447 90.5716 88.4244 90.5559 88.397L90.5549 88.394C90.5373 88.3646 90.5265 88.3293 90.5137 88.296C90.501 88.2676 90.4843 88.2401 90.4765 88.2087C90.4657 88.1715 90.4647 88.1313 90.4598 88.093C90.4569 88.0636 90.448 88.0352 90.448 88.0048V67.0342L85.8824 64.4244L82.5745 62.5342ZM91.2353 56.6832L83.3657 61.1832L91.2353 65.6813L99.1059 61.1823L91.2353 56.6832ZM95.3294 84.7597L99.8961 82.1499V62.5342L96.5902 64.4244L92.0225 67.0352V86.6499L95.3294 84.7597ZM119.58 61.993L111.71 66.4911L119.58 70.9901L127.45 66.4911L119.58 61.993ZM118.793 72.344L114.225 69.7332L110.92 67.843V76.7489L115.486 79.3597L118.793 81.2499V72.344ZM100.682 92.4127L112.226 85.8695L117.997 82.5989L110.132 78.1028L101.076 83.2793L92.8235 87.997L100.682 92.4127Z" fill="url(#paint0_linear_289_1455)"/>
</g>
<defs>
<linearGradient id="paint0_linear_289_1455" x1="253.49" y1="104.895" x2="81" y2="104.895" gradientUnits="userSpaceOnUse">
<stop stop-color="#EC2F4E"/>
<stop offset="1" stop-color="#840662"/>
</linearGradient>
<clipPath id="clip0_289_1455">
<rect width="172.549" height="50" fill="white" transform="translate(81 55)"/>
</clipPath>
</defs>
</svg>
